<svg xmlns="http://www.w3.org/2000/svg">
	<symbol id="cA" width="8" height="24" viewBox="2 -12 8 24">
		<path d="M -1.25 -0.68 C -1.15 0.12 -0.51 0.15 -0.01 -0.55 L 7 -9.01 L 7.67 -10.97 L 4.03 -0.09 C 4.1 -1.6 3.68 -2.72 2.92 -3.24 C 1.97 -3.78 0.59 -3.58 0.53 -2.82 C 0.45 -1.66 4.7 -2.2 6.6 -2.5" fill="none" />
	</symbol>

	<symbol id="sA" width="7" height="24" viewBox="3.5 -12 7 24">
		<path d="M 4.38 -4.36 C 3.97 -5.16 1.86 -5.16 1.53 -4.55 L 0.17 -0.48 C 0.2 0.14 0.89 0.03 1.24 -0.36 L 3.82 -2.47 L 4.63 -4.94 L 3.15 -0.42 C 3.18 0.11 3.64 0.07 4.04 -0.38 L 6 -2.5" fill="none" />
	</symbol>

	<symbol id="cB" width="7" height="24" viewBox="3 -12 7 24">
		<path d="M 3.46 -10.37 L 0.21 -0.64 C -0.23 0.39 -1.2 -0.2 -1.03 -0.67 L 1.68 -5.02 C 2.21 -6.35 5.36 -6.08 5.46 -5 L 3.98 -0.52 C 3.6 0.2 1.7 0.1 1.6 -0.8 M 1.69 -9.02 C 0.48 -9.95 0.97 -11.09 2 -11.01 L 7.32 -11" fill="none" />
	</symbol>

	<symbol id="sB" width="4" height="24" viewBox="4 -12 4 24">
		<path d="M 4.25 -4.09 C 3.64 -5.35 1.78 -5.08 1.47 -4.38 L 0.3 -0.91 C 0.18 0.31 2.96 0.11 3.22 -0.65 L 6.54 -10.64 C 6.73 -11.16 7.55 -11.02 9.48 -11" fill="none" />
	</symbol>

	<symbol id="cV" width="8" height="24" viewBox="3 -12 8 24">
		<path d="M 3.8 -10.95 L 0.16 -0.5 C -0.22 0.3 -1.77 -0.07 -1.11 -1.34 C 0.65 -4.48 2.47 -7.65 3.98 -10.39 C 4.81 -11.39 6.79 -10.96 6.71 -9.85 L 5.6 -6.69 C 5.4 -6.31 4.79 -6.32 4.12 -6.34 C 4.82 -6.05 5.51 -5.63 5.4 -5.25 L 3.95 -0.89 C 3.3 0.41 1.19 0.04 1.03 -1.15" fill="none" />
	</symbol>

	<symbol id="sV" width="5" height="24" viewBox="4 -12 5 24">
		<path d="M -0.348 -2.846 C 1.147 -4.125 4.258 -6.708 4.503 -7.044 C 4.8 -7.858 4.955 -8.413 5.252 -9.343 C 5.407 -10.337 3.911 -10.325 3.252 -9.743 L 0.357 -1.052 C 0.435 0.201 2.72 0.114 3.173 -0.742 L 4.361 -4.293 C 4.064 -5.301 2.154 -5.295 1.56 -4.254" fill="none" />
	</symbol>

	<symbol id="cGh" width="5" height="24" viewBox="4 -12 5 24">
		<path d="M 3.5 -10.46 L 0.24 -0.67 C -0.44 0.42 -1.74 -0.14 -1.57 -0.99 M 1.73 -8.58 C 0.04 -8.84 -0.12 -10.83 1.01 -11.03 L 7.64 -10.98" fill="none" />
	</symbol>

	<symbol id="sGh" width="3" height="24" viewBox="4 -12 3 24">
		<path d="M 1.73 -3.3 L 3.47 -4.65 C 4.07 -5.17 4.5 -5.06 4.54 -4.57 L 3.21 -0.7 C 3.01 -0.02 3.63 0.13 4.03 -0.33 L 5.98 -2.49" fill="none" />
	</symbol>

	<symbol id="cG" width="6" height="24" viewBox="4 -12 6 24">
		<path d="M -2.46 -0.93 C -2.04 0.33 0.01 0.28 0.52 -1.03 L 4 -10.96 C 4.99 -10.65 6.02 -10.73 7.44 -11.39" fill="none" />
	</symbol>

	<symbol id="sG" width="4" height="24" viewBox="4 -12 4 24">
		<path d="M -2.43 -0.93 C -2.04 0.33 0.01 0.28 0.52 -1.03 L 1.87 -4.89 c 0.65 0.58 2.43 0.58 2.94 -0.04" fill="none" />
	</symbol>

	<symbol id="cD" width="8" height="24" viewBox="2 -12 8 24">
		<path d="M 3.32 -10.03 L 0.35 -1.02 C -0.69 0.8 -2.06 -0.56 -1.99 -0.77 C -1.32 -1.23 -0.65 -1.48 0.28 -0.71 C 1.44 0.11 4.02 0.31 4.29 -0.85 L 6.64 -7.95 C 7.33 -11.99 1.36 -11.45 0.5 -8.97 C 0.04 -7.93 0.01 -6.45 0.39 -5.8 C 1.36 -4.05 4.77 -2.9 6.76 -2.46" fill="none" />
	</symbol>

	<symbol id="sD" width="6" height="24" viewBox="3 -12 6 24">
		<path d="M 4.24 -3.92 C 3.97 -5.32 2.31 -5.22 1.53 -4.5 L 0.29 -0.81 C 0.53 0.33 1.37 -0.25 1.65 -0.53 L 3.93 -2.77 L 4.66 -4.97 L 1.61 4.09 C 0.92 5 -0.01 4.09 0.12 3.46 L 0.83 1.62 L 5.52 -2.5" fill="none" />
	</symbol>

	<symbol id="cE" width="6" height="24" viewBox="3 -12 6 24">
		<path d="M 6.84 -8.51 L 7.35 -10.03 C 7.05 -11.15 4.23 -11.15 3.49 -10.43 L 2.19 -6.53 L 4.05 -6.02 L 1.75 -5.25 L 0.24 -0.72 C 0.24 0.17 1.37 0.07 1.82 -0.4 L 4.83 -2.5" fill="none" />
	</symbol>

	<symbol id="sE" width="4" height="24" viewBox="4 -12 4 24">
		<path d="M 0.01 -1.5 L 3.7 -3.84 L 3.86 -4.35 C 3.89 -5.23 1.8 -5.14 1.5 -4.49 L 0.22 -0.67 C 0.19 0.01 0.69 0.11 1.27 -0.28 L 4.29 -2.5" fill="none" />
	</symbol>

	<symbol id="cJe" width="8" height="24" viewBox="2.2 -12 8 24">
		<path d="M 6.904 -8.766 L 7.36 -10.06 C 7.2 -11.37 3.85 -10.94 3.49 -10.43 L 0.34 -1.07 C 0.24 -0.27 1.99 0.37 2.94 -0.51 L 5.2 -2.5 M 2.01 -6 L 4.49 -5.97" fill="none" />
	</symbol>

	<symbol id="sJe" width="5" height="24" viewBox="4 -12 5 24">
		<path d="M 3.537 -4.059 C 3.79 -5.37 1.7 -5.17 1.56 -4.65 L 0.29 -0.85 C 0.17 -0.23 0.65 0.32 1.45 -0.33 L 3.5 -2.5 M 1 -2.99 L 2.45 -3" fill="none" />
	</symbol>

	<symbol id="cZh" width="10" height="24" viewBox="1 -12 10 24">
		<path d="M -0.55 -7.61 L 2.32 -10.64 C 2.9 -11.27 3.55 -11 3.5 -10.45 L 0.27 -0.76 C -0.99 0.6 -2.38 -0.21 -2.5 -1.52 M 0.37 -1.04 L 5.67 -8.02 M 6.68 -11.05 L 3 0 M 3.33 -0.94 L 8.69 -8.02 L 9.35 -10.11 C 9.67 -11.08 11.96 -11.27 11.96 -9.98 L 11.11 -7.3 M 8.67 -7.98 L 6.31 -0.94 C 6.18 -0.19 6.91 0.31 7.62 -0.33 L 9.56 -2.5" fill="none" />
	</symbol>

	<symbol id="sZh" width="6" height="24" viewBox="3 -12 6 24">
		<path d="M -0.09 -3.79 L 0.89 -4.82 C 1.04 -5.01 1.55 -5.09 1.57 -4.73 L 0.25 -0.72 C -0.25 0.33 -1.11 -0.01 -1.04 -0.78 M 0.27 -0.75 L 2.82 -3.96 L 3.17 -4.97 L 1.51 -0.01 L 1.74 -0.71 L 4.32 -3.95 L 4.54 -4.6 C 4.78 -5.01 5.77 -5.2 5.83 -4.42 L 5.66 -3.84 M 4.32 -3.92 L 3.21 -0.61 C 3.06 0.26 3.93 -0.02 4.19 -0.48 L 5.52 -2.5" fill="none" />
	</symbol>

	<symbol id="cZ" width="8" height="24" viewBox="2 -12 8 24">
		<path d="M 4.01 -8.73 L 4.66 -10.34 C 5.04 -11.19 8.24 -11.25 8.37 -10.14 L 7.15 -6.43 C 7.02 -6.06 6.04 -6.1 5.36 -6.02 C 5.95 -5.75 6.92 -5.65 6.74 -5.24 L 5.32 -0.98 C 5.08 -0.23 4.72 0.01 2.99 -0.01 C 1.18 0 0.98 -0.8 0.97 -1.21" fill="none" />
	</symbol>

	<symbol id="sZ" width="4.2" height="24" viewBox="4 -12 4.3 24">
		<path d="M 0.99 -3 L 1.42 -4.25 C 1.81 -5.32 4.53 -5.07 4.43 -4.34 L 3.45 -1.33 C 3.29 -0.93 2.78 -0.85 1.83 -0.75 C 2.63 -0.52 3.05 -0.45 3 0 L 1.16 5.47 C 0.48 6.34 -0.45 5.79 -0.31 4.94 L 0.75 2 L 5.61 -2.5" fill="none" />
	</symbol>

	<symbol id="cY" width="6" height="24" viewBox="3 -12 6 24">
		<path d="M 7.54 -10.98 M 0.77 -8.97 L 1.87 -10.49 C 1.96 -11.01 3.67 -11.29 3.56 -10.38 L 0.35 -0.95 C 0.08 -0.26 1.21 0.18 1.71 -0.48 L 5.74 -5.54 M 7.54 -11.01 L 4.28 -1.09 C 4.08 -0.35 4.77 0.34 5.58 -0.68 L 7.43 -2.5" fill="none" />
	</symbol>

	<symbol id="sY" width="4" height="24" viewBox="4 -12 4 24">
		<path d="M 1.84 -4.88 M 1.84 -4.91 L 0.4 -0.82 C 0.27 -0.02 1.21 0.15 1.7 -0.48 L 4.19 -2.98 M 4.94 -4.96 L 3.42 -0.95 C 3.14 0.21 4 0.07 4.55 -0.57 L 5.79 -2.5" fill="none" />
	</symbol>

	<symbol id="cI" width="2" height="24" viewBox="5 -12 2 24">
		<path d="M 4.14 -11.54 C 3.82 -11.24 4.46 -11.25 4.14 -11.54 M 4 -10.95 L 0.52 -1.05 C 0.48 0.41 1.85 -0.12 2.34 -0.8 L 3.57 -2.5" fill="none" />
	</symbol>

	<symbol id="sI" width="2" height="24" viewBox="5 -12 2 24">
		<path d="M 2.1 -5.45 c -0.32 0.3 0.32 0.29 0 0 M 1.93 -4.85 L 0.46 -0.89 C 0.282 0.019 0.92 0.17 1.52 -0.53 L 2.99 -2.5" fill="none" />
	</symbol>

	<symbol id="cJi" width="2" height="24" viewBox="5 -12 2 24">
		<path d="M 3.64 -11.54 c -0.32 0.3 0.32 0.29 0 0 M 4.54 -11.54 c -0.32 0.3 0.32 0.29 0 0 M 4 -10.95 L 0.52 -1.05 C 0.48 0.41 1.85 -0.12 2.34 -0.8 L 3.57 -2.5" fill="none" />
	</symbol>

	<symbol id="sJi" width="2" height="24" viewBox="5 -12 2 24">
		<path d="M 1.7 -5.45 c -0.32 0.3 0.32 0.29 0 0 M 2.5 -5.45 c -0.32 0.3 0.32 0.29 0 0 M 1.93 -4.85 L 0.46 -0.89 C 0.28 0.02 0.92 0.17 1.52 -0.53 L 2.99 -2.5" fill="none" />
	</symbol>

	<symbol id="cJ" width="6" height="24" viewBox="3 -12 6 24">
		<path d="M 7.44 -10.98 M 0.67 -8.97 L 1.77 -10.49 C 1.86 -11.01 3.57 -11.29 3.46 -10.38 L 0.25 -0.95 C -0.02 -0.26 1.11 0.18 1.61 -0.48 L 5.64 -5.54 M 7.44 -11.01 L 4.18 -1.09 C 3.98 -0.35 4.67 0.34 5.48 -0.68 L 7.33 -2.48 M 4.8 -11.6 C 5.29 -10.58 6.41 -10.76 6.47 -11.62" fill="none" />
	</symbol>

	<symbol id="sJ" width="4" height="24" viewBox="4 -12 4 24">
		<path d="M 1.84 -4.88 M 1.84 -4.91 L 0.4 -0.82 C 0.27 -0.02 1.21 0.15 1.7 -0.48 L 4.18 -2.98 M 4.94 -4.96 L 3.42 -0.95 C 3.14 0.21 4 0.07 4.55 -0.57 L 5.79 -2.5 M 2.59 -6.01 C 3.25 -5.02 4.45 -5.14 4.47 -6.04" fill="none" />
	</symbol>

	<symbol id="cK" width="6" height="24" viewBox="3 -12 6 24">
		<path d="M 1.12 -7.47 L 3.67 -10.79 L 0.24 -0.61 C -0.51 0.46 -1.72 -0.09 -1.53 -1.15 L 4.94 -10.22 C 5.861 -11.404 7.07 -10.402 6.79 -9.62 L 6.32 -8.43 M 2.14 -6.27 L 4.58 -6.27 C 5.07 -6.32 5.25 -5.88 4.94 -5.13 L 3.49 -1.15 C 3.1 -0.14 3.8 0.31 4.4 -0.45 L 6.45 -2.5" fill="none" />
	</symbol>

	<symbol id="sK" width="4" height="24" viewBox="4 -12 4 24">
		<path d="M 1.69 -5.04 L 0.01 -0.07 M 0.82 -2.53 L 3.04 -4.76 C 3.43 -5.15 4.38 -4.99 4.23 -4.52 L 3.88 -3.65 M 0.82 -2.51 L 2.85 -2.5 C 3.16 -2.51 3.5 -2.29 3.16 -1.78 L 2.75 -0.81 C 2.54 -0.3 2.97 0.33 3.49 -0.3 L 5.31 -2.5" fill="none" />
	</symbol>

	<symbol id="cL" width="8" height="24" viewBox="2 -12 8 24">
		<path d="M -1.13 -1.07 C -1.34 0.2 -0.32 0.11 0.34 -0.68 L 6.34 -8.92 L 7.04 -10.92 L 3.53 -0.95 C 3.25 -0.01 4.16 0.2 4.7 -0.68 L 5.87 -2.5" fill="none" />
	</symbol>

	<symbol id="sL" width="4" height="24" viewBox="4 -12 4 24">
		<path d="M -0.1 -1.14 C -0.2 -0.11 0.43 0.38 1.28 -0.57 L 4.48 -4.27 L 4.73 -4.96 L 3.26 -0.83 C 3 0.03 3.74 0.26 4.35 -0.54 L 6.06 -2.5" fill="none" />
	</symbol>

	<symbol id="cM" width="8" height="24" viewBox="2 -12 8 24">
		<path d="M -0.94 -1.36 C -1.15 -0.46 -0.76 0.58 0.19 -0.63 L 5.94 -8.29 L 6.79 -10.92 L 3.59 -1.01 C 3.33 0.25 4.15 0.25 4.79 -0.75 L 8.04 -5.52 L 9.8 -10.89 L 6.54 -0.95 C 6.22 0.29 7.11 0.02 7.73 -0.63 L 9.56 -2.5" fill="none" />
	</symbol>

	<symbol id="sM" width="6" height="24" viewBox="3 -12 6 24">
		<path d="M -0.76 -0.86 C -0.81 0.08 -0.04 0.11 0.4 -0.42 L 3.31 -3.92 L 3.67 -4.99 L 2.29 -0.92 C 2.05 -0.04 2.87 0.31 3.36 -0.49 L 5.06 -2.93 L 5.74 -4.99 L 4.38 -0.78 C 4.15 -0.02 4.87 0.22 5.45 -0.5 L 6.94 -2.5" fill="none" />
	</symbol>

	<symbol id="cN" width="6" height="24" viewBox="3 -12 6 24">
		<path d="" fill="none" />
	</symbol>

	<symbol id="sN" width="4" height="24" viewBox="4 -12 4 24">
		<path d="" fill="none" />
	</symbol>

	<symbol id="cO" width="8" height="24" viewBox="2 -12 8 24">
		<path d="M 3.61 -10.56 L 0.51 -1.6 C 0.84 0.26 3.26 0.14 4.11 -0.81 L 7.21 -9.97 C 7.12 -10.92 4.47 -11.33 3.61 -10.56" fill="none" />
	</symbol>

	<symbol id="sO" width="4" height="24" viewBox="4 -12 4 24">
		<path d="M 1.58 -4.55 L 0.51 -1.33 C 0.32 0.04 2.43 0.46 2.99 -0.86 L 4.08 -4.02 C 4.23 -5.08 1.9 -5.11 1.61 -4.58" fill="none" />
	</symbol>

	<symbol id="cP" width="6" height="24" viewBox="3 -12 6 24">
		<path d="M -1.45 -0.85 C -1.47 -0.21 -0.53 0.47 0.23 -0.69 L 3.67 -10.36 M 5.77 -10.33 L 2.5 -0.66 C 2.29 0.04 3.24 0.17 3.84 -0.54 L 5.56 -2.5 M 1.55 -8.18 C 0.53 -9.02 0.38 -10.67 1.62 -10.98 L 8.07 -11.01" fill="none" />
	</symbol>

	<symbol id="sP" width="4" height="24" viewBox="4 -12 4 24">
		<path d="M 1.67 -5.05 L 0.01 -0.07 M 1.26 -3.71 L 2.46 -4.58 C 3.91 -5.49 4.45 -4.5 4.2 -3.87 L 2.99 -0.84 C 2.63 0.09 3.52 0.14 4.06 -0.53 L 5.94 -2.5" fill="none" />
	</symbol>

	<symbol id="cR" width="6" height="24" viewBox="3 -12 6 24">
		<path d="M -1.75 -1.15 C -1.83 -0.06 -0.35 0.4 0.23 -0.75 L 3.49 -10.15 M 1.23 -8.58 C -0.19 -9 -0.41 -10.77 1.01 -11 L 5.35 -11 C 7.04 -10.77 6.05 -8.9 5.25 -8.59" fill="none" />
	</symbol>

	<symbol id="sR" width="4" height="24" viewBox="3 -12 4 24">
		<path d="M 1.82 -5.05 L -0.87 2.44 M 1.33 -3.63 L 2.61 -4.58 C 4.06 -5.49 4.62 -4.51 4.35 -3.87 L 3.2 -1.13 C 2.74 0.02 3.66 0.23 4.26 -0.56 L 6.09 -2.5" fill="none" />
	</symbol>

	<symbol id="cS" width="8" height="24" viewBox="2 -12 8 24">
		<path d="M 3.9 -2.53 M 5.94 -8.4 L 6.56 -9.89 C 6.67 -10.99 4.19 -11.27 3.55 -10.45 L 0.39 -1.25 C 0.16 -0.01 1.06 0.21 1.97 -0.52 L 3.93 -2.53" fill="none" />
	</symbol>

	<symbol id="sS" width="6" height="24" viewBox="3 -12 6 24">
		<path d="M 3.94 -4.2 C 4.22 -5.22 1.89 -5.29 1.57 -4.58 L 0.34 -0.92 C 0.17 -0.06 0.77 0.33 1.66 -0.66 L 3.32 -2.36" fill="none" />
	</symbol>

	<symbol id="cT" width="8" height="24" viewBox="2 -12 8 24">
		<path d="M -1.35 -0.98 C -1.45 -0.07 -0.43 0.44 0.25 -0.69 L 3.67 -10.3 M 5.77 -10.45 L 2.24 -0.04 M 7.76 -10.33 L 4.57 -0.95 C 4.46 0.25 5.75 0.07 6.44 -0.84 L 7.9 -2.5 M 1.74 -8.54 C 0.41 -9.38 0.83 -11 1.56 -11 L 10 -11.09" fill="none" />
	</symbol>

	<symbol id="sT" width="6" height="24" viewBox="3 -12 6 24">
		<path d="M 1.78 -5.02 L 0 0 M 1.24 -3.49 L 3.12 -4.71 C 3.64 -5.11 4.62 -5.14 4.51 -4.54 L 2.97 -0.05 M 4.16 -3.49 L 6.15 -4.74 C 6.63 -5.08 7.6 -5.02 7.47 -4.43 L 6.03 -0.52 C 5.84 0.23 6.78 0 6.94 -0.25 L 9.16 -2.5" fill="none" />
	</symbol>

	<symbol id="cU" width="7" height="24" viewBox="3 -12 7 24">
		<path d="M 0.46 -8.61 M 0.46 -8.61 L 2.54 -10.74 C 3.06 -11.24 3.94 -10.97 3.94 -10.48 L 2.65 -6.47 C 2.71 -5.56 3.82 -5.63 4.32 -6.12 L 6.61 -8.15 L 7.62 -10.86 L 4.17 -1.42 C 3.53 0.59 1.41 0.13 1.19 -1.19" fill="none" />
	</symbol>

	<symbol id="sU" width="6" height="24" viewBox="3 -12 6 24">
		<path d="M 1.7 -4.95 L 0.33 -0.71 C 0.26 0.18 0.91 0.06 1.38 -0.31 L 3.81 -2.36 L 4.69 -4.97 L 1.67 4.1 C 1.14 4.94 0.07 4.28 0.2 3.78 L 1.06 1.55 L 5.5 -2.45" fill="none" />
	</symbol>

	<symbol id="cF" width="10" height="24" viewBox="1 -12 10 24">
		<path d="M -2.69 -1.52 M -1.73 -0.83 C -1.25 0.49 0.01 -0.14 0.29 -1.02 L 3.59 -10.96 M 3.33 -10.22 C 2.49 -11.69 0.76 -10.88 0.55 -10.43 L -0.97 -6.43 C -1.08 -4.89 0 -4.66 1.04 -5.85 L 2.57 -7.95 M 3.33 -10.25 C 5.13 -11.69 6.49 -10.73 6.46 -10.05 L 5.14 -6.02 C 4.63 -4.72 3.4 -4.79 3.13 -5.99 L 2.57 -7.92" fill="none" />
	</symbol>

	<symbol id="sF" width="6" height="24" viewBox="3 -12 6 24">
		<path d="M 2.57 -4.88 M 2.6 -4.87 L -0.3 3.63 M 2.25 -3.92 C 1.91 -5.39 0.28 -4.77 0.07 -4.21 L -1.01 -0.9 C -1.07 0.09 -0.06 0.07 0.34 -0.38 L 1.73 -2.24 M 2.25 -3.87 C 3.31 -5.24 4.35 -4.77 4.46 -3.69 L 3.46 -0.8 C 3.03 0.39 2.11 -0.05 2.02 -0.64 L 1.7 -2.24" fill="none" />
	</symbol>

	<symbol id="cH" width="8" height="24" viewBox="2 -12 8 24">
		<path d="M 3.23 -0.88 M 2.72 -7.87 L 4.98 -10.46 C 5.66 -11.23 6.69 -10.88 6.48 -10.19 L 3.23 -0.85 C 3.02 -0.07 0.79 0.7 0.81 -1.31 M 6.5 -10.19 C 6.99 -11.38 9.09 -10.7 8.83 -9.83 L 8.15 -8.14 M 3.28 -1.01 C 3.31 0.17 4.36 0.29 5.28 -0.85 L 6.62 -2.5" fill="none" />
	</symbol>

	<symbol id="sH" width="6" height="24" viewBox="3 -12 6 24">
		<path d="M 2.2 -3.94 C 2.44 -4.29 4.34 -5.77 4.46 -4.29 L 3.38 -0.91 C 2.27 0.52 0.87 0 0.94 -1.1 M 6.62 -4.01 C 6.8 -5.46 4.54 -4.97 4.46 -4.32 M 3.38 -0.89 C 3.41 0.37 4.36 0.08 5.02 -0.8 L 6.5 -2.5" fill="none" />
	</symbol>

	<symbol id="cC" width="7" height="24" viewBox="3 -12 7 24">
		<path d="M 0.42 -8.04 L 2.09 -10.25 C 2.6 -11.01 3.55 -11.29 3.37 -10.14 L 0.39 -1.02 C 0.05 0.14 1.11 0.11 1.7 -0.68 L 5.63 -5.24 L 7.43 -10.9 L 4.25 -0.85 C 4.08 0.28 5.14 0.26 6.18 -1.65 L 5.22 1.08 C 5.1 1.65 4.2 1.5 4.37 0.99 L 7.58 -2.5" fill="none" />
	</symbol>

	<symbol id="sC" width="5" height="24" viewBox="4 -12 5 24">
		<path d="M 1.69 -4.94 M 1.69 -4.96 L 0.3 -0.76 C 0.1 -0.11 0.75 0.27 1.34 -0.44 L 3.14 -2.5 L 3.96 -4.99 L 2.54 -0.73 C 2.39 0.15 3.08 0.05 3.43 -0.41 L 4.53 -1.67 L 3.54 1.54 C 3.31 1.79 2.91 1.79 2.8 1.28 L 3.03 0.4 L 6.32 -2.5" fill="none" />
	</symbol>

	<symbol id="cCh" width="6" height="24" viewBox="3 -12 6 24">
		<path d="M 0.06 -8.39 M 0.09 -8.39 L 1.84 -10.29 C 2.48 -11.18 3.5 -10.79 3.34 -10.03 L 2.08 -6.49 C 2.07 -5.59 2.97 -5.23 3.82 -5.93 L 5.7 -7.92 L 6.72 -10.76 L 3.25 -0.91 C 3.08 0.21 4.27 0.08 4.86 -0.72 L 6.53 -2.5" fill="none" />
	</symbol>

	<symbol id="sCh" width="4" height="24" viewBox="4 -12 4 24">
		<path d="M 1.47 -3.61 L 1.97 -4.94 C 2.31 -4.03 4.064 -3.874 4.68 -4.93 L 3.348 -0.908 C 3.14 0.14 4.04 0.27 4.78 -0.83 L 5.981 -2.5" fill="none" />
	</symbol>

	<symbol id="cSh" width="10" height="24" viewBox="1 -12 10 24">
		<path d="M 1.25 -8.96 L 2.96 -10.64 C 3.7 -11.22 4.33 -10.91 4.04 -9.99 L 0.88 -1.07 C 0.63 0.04 1.51 0.26 2.25 -0.76 L 5.91 -5.45 L 7.75 -10.9 L 4.32 -0.79 C 4.09 -0.01 4.84 0.32 5.77 -0.96 L 9.37 -5.46 L 11.24 -10.98 L 7.87 -1.07 C 7.42 0.48 8.66 0 9.26 -0.93 L 10.48 -2.46" fill="none" />
	</symbol>

	<symbol id="sSh" width="6" height="24" viewBox="3 -12 6 24">
		<path d="M 1.66 -4.95 L 0.25 -0.76 C 0.21 0.31 1.25 -0.02 1.62 -0.47 L 3.12 -2.66 L 3.97 -4.96 L 2.52 -1.07 C 2.56 0.34 3.55 0.04 4.14 -0.56 L 5.71 -2.79 L 6.5 -4.93 L 5 -0.87 C 4.9 0.35 5.99 -0.08 6.39 -0.67 L 7.58 -2.46" fill="none" />
	</symbol>

	<symbol id="cSch" width="11" height="24" viewBox="1 -12 11 24">
		<path d="M 0.95 -8.96 L 2.66 -10.64 C 3.48 -11.1 3.85 -10.41 3.74 -9.99 L 0.58 -1.07 C 0.41 0.12 1.25 0.25 1.95 -0.76 L 5.61 -5.45 L 7.44 -10.91 L 4.02 -0.79 C 3.84 -0.07 4.53 0.4 5.47 -0.96 L 9.05 -5.5 L 10.89 -10.89 L 7.57 -1.07 C 7.22 0.47 8.34 0.07 8.96 -0.93 L 9.33 -1.47 L 8.38 1.54 C 8.44 2.02 7.37 1.84 7.62 1.28 L 10.7 -2.43" fill="none" />
	</symbol>

	<symbol id="sSch" width="7" height="24" viewBox="3 -12 7 24">
		<path d="M 1.66 -4.93 L 0.25 -0.76 C 0.21 0.24 1.28 0 1.62 -0.47 L 3.12 -2.66 L 3.97 -4.96 L 2.52 -1.07 C 2.39 0.38 3.55 0.04 4.14 -0.56 L 5.71 -2.8 L 6.5 -4.93 L 5 -0.87 C 4.85 0.41 5.99 -0.08 6.27 -0.7 L 6.96 -1.78 L 5.99 1.26 C 5.59 2.05 4.71 1.43 5.11 0.92 L 8.35 -2.41" fill="none" />
	</symbol>

	<symbol id="cX" width="6" height="24" viewBox="3 -12 6 24">
		<path d="" fill="none" />
	</symbol>

	<symbol id="sX" width="4" height="24" viewBox="3 -12 4 24">
		<path d="M 1.88 -4.98 L 0.53 -0.98 C 0.5 0.4 2.16 0.08 2.41 -0.8 L 2.97 -2.47 C 2.78 -3.24 1.39 -3.07 1.06 -2.53" fill="none" />
	</symbol>

	<symbol id="cJu" width="8" height="24" viewBox="2 -12 8 24">
		<path d="M 1.01 -6.78 M 1.04 -6.75 L 3.53 -10.37 L 0.27 -0.5 C -0.15 0.25 -1.16 0.01 -0.83 -1.04 L 0.44 -4.2 C 1.72 -5.05 2.68 -5.93 4.23 -6.1 L 5.64 -10.25 C 6.49 -11.1 8.7 -10.7 8.81 -10.03 L 5.79 -0.81 C 4.79 0.78 2.34 -0.36 2.59 -1.43 L 4.21 -6.06" fill="none" />
	</symbol>

	<symbol id="sJu" width="6" height="24" viewBox="3 -12 6 24">
		<path d="M 1.76 -4.98 L 0.02 0 M 0.88 -2.48 C 1.65 -2.45 2.73 -2.85 3.07 -3.21 M 3.46 -4.49 L 2.34 -0.91 C 2.2 0.36 4.26 0.13 4.55 -0.78 L 5.7 -4.29 C 5.36 -5.19 3.89 -5.16 3.47 -4.5" fill="none" />
	</symbol>

	<symbol id="cJa" width="6" height="24" viewBox="3 -12 6 24">
		<path d="M -0.93 -1.02 C -0.93 -0.1 -0.03 0.36 0.73 -0.59 L 6.5 -7.17 L 7.76 -10.92 L 4.43 -0.99 C 4.23 0.2 5.25 0.2 6.06 -0.87 L 7.51 -2.5 M 7.43 -9.97 C 6.82 -11.61 4.68 -11.2 4.12 -10.38 L 2.74 -6.8 C 2.74 -5.96 3.46 -5.36 4.43 -6.14 L 6.67 -7.7" fill="none" />
	</symbol>

	<symbol id="sJa" width="4" height="24" viewBox="4 -12 4 24">
		<path d="M 0.58 -0.97 C 0.52 -0.11 1.26 0.44 2.03 -0.63 L 4.27 -3.71 L 4.71 -4.99 L 3.22 -0.69 C 2.97 0.33 4.15 -0.05 4.38 -0.41 L 6.16 -2.5 M 4.59 -4.65 C 3.73 -5.27 2.51 -4.93 2.43 -4.7 L 1.73 -2.5 C 1.77 -2.21 2.47 -2.18 2.81 -2.5 L 4.38 -4.05" fill="none" />
	</symbol>
</svg>

