<svg xmlns="http://www.w3.org/2000/svg">
	<symbol id="d0" width="60" height="60" viewBox="0 -12 12 12">
		<path d="M 7 -11.7 C 4.6 -11.9 3.7 -9.3 3.2 -6.1 C 2.8 -2.7 3.5 -0.5 5 -0.3 C 6.9 -0.1 8.5 -2.1 8.9 -6 C 9.2 -9.3 8.8 -11.5 7.1 -11.7" fill="none" />
	</symbol>

	<symbol id="d1" width="60" height="60" viewBox="0 -12 12 12">
		<path d="M 4 -8 L 7 -11.7 L 5 -0.2" fill="none" />
	</symbol>

	<symbol id="d2" width="60" height="60" viewBox="0 -12 12 12">
		<path d="M 4.5 -9.4 C 4.8 -10.3 5.4 -11.8 7.4 -11.8 C 9.8 -11.7 10.1 -7.9 6.9 -5.7 C 4.1 -3.8 2.9 -2.2 2.3 -0.3 C 4.9 -1.3 7.3 0.6 9.1 -0.6" fill="none" />
	</symbol>

	<symbol id="d3" width="60" height="60" viewBox="0 -12 12 12">
		<path d="M 4 -10.7 C 4.4 -11.1 5 -11.4 5.6 -11.6 C 6.7 -12 8.1 -11.8 8.8 -10.6 C 9.3 -9.4 8.6 -8.2 8.1 -7.8 C 6.9 -7 5.9 -7.1 5 -6.8 C 7.5 -7.4 9.7 -6.5 9.9 -4.7 C 9.9 -4.7 10.7 -0.3 6 -0.2 C 4.9 -0.3 4 -0.4 3 -1.1 C 2 -2.1 2.3 -1.8 2 -2.1" fill="none" />
	</symbol>

	<symbol id="d4" width="60" height="60" viewBox="0 -12 12 12">
		<path d="M 5.9 -11.7 C 5.3 -9.7 4.9 -7.9 4.1 -5.1 C 5.4 -5.4 6.6 -5.1 7.9 -4.8 M 8.9 -9.3 C 8.4 -6.7 7.7 -3.5 7.1 -0.3" fill="none" />
	</symbol>

	<symbol id="d5" width="60" height="60" viewBox="0 -12 12 12">
		<path d="M 9.5 -11.7 C 8.3 -11.2 7.4 -11.7 5.3 -11.7 C 5.3 -11.7 5.3 -11.7 4.2 -6.4 C 6.3 -7.5 7.1 -7.5 8.2 -6.8 C 8.6 -6.7 9.8 -5.5 9.7 -4.1 C 9.8 -3.3 9.3 -1.7 8.6 -1.1 C 7.8 -0.1 6 -0.1 5 -0.4 C 4.4 -0.6 3.5 -1.4 3.3 -2" fill="none" />
	</symbol>

	<symbol id="d6" width="60" height="60" viewBox="0 -12 12 12">
		<path d="M 8.7 -10.7 C 7.6 -12.1 5.2 -11.9 4.4 -11.2 C 3.4 -10.4 2.9 -8.4 2.5 -6.8 C 2.3 -5.4 1.9 -2.2 3 -1 C 3.9 -0.1 6.1 0.5 7.8 -1.3 C 8.4 -2 9.1 -3.8 8.1 -5.4 C 6.6 -7.7 2.8 -6.7 2.3 -4.4" fill="none" />
	</symbol>

	<symbol id="d7" width="60" height="60" viewBox="0 -12 12 12">
		<path d="M 3.2 -10.1 C 3.7 -11.8 4.6 -11.7 5.7 -11 C 7.3 -10.2 8 -11 9 -11.4 C 8.5 -10.2 8.1 -8.5 7.1 -5.1 C 6.5 -3.3 6.4 -2.2 6.1 -0.3 M 5.2 -5 C 7.1 -4.6 7 -5.1 8.6 -4.9" fill="none" />
	</symbol>

	<symbol id="d8" width="60" height="60" viewBox="0 -12 12 12">
		<path d="M 6 -7 C 5 -7.5 4.5 -8.3 4.7 -9.5 C 5 -11.1 5.6 -11.9 7.1 -11.8 C 8 -11.7 8.4 -10.6 8.1 -9.2 C 7.8 -7.6 7.3 -7.3 6 -7 C 4.8 -6.7 3.5 -5.9 3.2 -3.5 C 3 -1.7 4.1 -0.2 5.4 -0.2 C 6.6 -0.2 7.9 -1 8.2 -3.2 C 8.6 -5.4 7.8 -6.3 6 -7" fill="none" />
	</symbol>

	<symbol id="d9" width="60" height="60" viewBox="0 -12 12 12">
		<path d="M 9.4 -10.6 C 7.1 -12.6 4.5 -11.5 4.1 -9.3 C 3.7 -7.5 4.7 -5.8 6.5 -5.7 C 7.8 -5.7 9 -6.6 9.2 -8.5 C 9.4 -9.6 9.3 -9.6 9.5 -10.8 C 9 -7 8.8 -5.4 8.5 -3.7 C 8.3 -2.1 7.5 -0.2 5.8 -0.2 C 4.5 -0.2 3.6 -0.8 2.9 -1.8" fill="none" />
	</symbol>

</svg>
