<svg xmlns="http://www.w3.org/2000/svg">
	<symbol id="CapA" width="8" height="24" viewBox="2 -12 8 24">
		<path d="M 10 0 L 6 -10.8 L 2 0 M 4 -5.4 L 8 -5.4" fill="none" />
	</symbol>

	<symbol id="SmallA" width="7" height="24" viewBox="3.5 -12 7 24">
		<path d="M 8.6 0 L 6 -7 L 3.4 0 M 4.7 -3.5 L 7.3 -3.5" fill="none" />
	</symbol>

	<symbol id="CapB" width="7" height="24" viewBox="3 -12 7 24">
		<path d="M 3 -10.7 L 3 -0.1 L 6 -0.1 C 10.5 -0.2 10.5 -5.4 6.1 -5.4 L 3 -5.4 M 3 -10.7 L 8.8 -10.7" fill="none" />
	</symbol>

	<symbol id="SmallB" width="5" height="24" viewBox="3.2 -12 5 24">
		<path d="M 6 -5 C 7.4 -5 8.2 -3.8 8.2 -2.6 C 8.1 -0.4 6.7 -0.1 6.1 -0 C 4.1 -0.1 3.5 -1.2 3.5 -2.4 C 3.5 -4.1 4.3 -4.9 6 -5 M 3.5 -2.4 C 2.7 -9.3 8.5 -4.9 8 -6.9" fill="none" />
	</symbol>

	<symbol id="CapV" width="8" height="24" viewBox="3 -12 8 24">
		<path d="M 3 -10.6 L 3 0 L 7 0 C 11.9 -0.1 11.9 -5.3 7.1 -5.3 L 3 -5.3 M 3 -10.6 L 7 -10.6 C 11 -10.6 11 -5.7 7 -5.3" fill="none" />
	</symbol>

	<symbol id="SmallV" width="5" height="24" viewBox="4 -12 5 24">
		<path d="M 4 -6.8 L 4 0 L 6 0 C 9 -0 9 -3.4 6 -3.4 L 4 -3.4 M 4 -6.8 L 6 -6.8 C 8.3 -6.8 8.4 -3.7 6 -3.4" fill="none" />
	</symbol>

	<symbol id="CapGh" width="5" height="24" viewBox="4 -12 5 24">
		<path d="M 4 -10.8 L 4 -0.1 M 4 -10.8 L 9 -10.8" fill="none" />
	</symbol>

	<symbol id="SmallGh" width="3" height="24" viewBox="4 -12 3 24">
		<path d="M 4 -6.9 L 4 -0 M 4 -6.9 L 7 -6.9" fill="none" />
	</symbol>

	<symbol id="CapG" width="6" height="24" viewBox="4 -12 6 24">
		<path d="M 4 -10.5 L 4 0 M 4 -10.5 L 9.1 -10.5 C 9.4 -10.5 9.1 -10.8 9.6 -10.8" fill="none" />
	</symbol>

	<symbol id="SmallB" width="4" height="24" viewBox="4 -12 4 24">
		<path d="M 4 -6.9 L 4 -0.1 M 4 -6.9 L 7.2 -6.9 C 7.5 -6.9 7.3 -7.3 7.6 -7.2" fill="none" />
	</symbol>

	<symbol id="CapD" width="8" height="24" viewBox="2 -12 8 24">
		<path d="M 2 2.7 L 2 0 L 10 0 L 10 2.7 M 3 0 L 4 -10.7 L 8 -10.7 L 9 0" fill="none" />
	</symbol>

	<symbol id="SmallD" width="6" height="24" viewBox="3 -12 6 24">
		<path d="M 0 0 M 3 1.5 L 3 0 L 9 0 L 9 1.5 M 4 0 L 5 -7 L 7 -7 L 8 0" fill="none" />
	</symbol>

	<symbol id="CapE" width="8" height="24" viewBox="2 -12 8 24">
		<path d="M 2 -10.8 L 2 0 L 10 0 M 2 -5.4 L 10 -5.4 M 2 -10.8 L 10 -10.8" fill="none" />
	</symbol>

	<symbol id="SmallE" width="4" height="24" viewBox="4 -12 4 24">
		<path d="M 4 -7 L 4 -0 L 8 -0 M 4 -3.6 L 8 -3.6 M 4 -7 L 8 -7" fill="none" />
	</symbol>

	<symbol id="CapJe" width="8" height="24" viewBox="2.2 -12 8 24">
		<path d="M 10 -9.2 C 9.1 -10.3 8 -10.9 6 -10.7 C 3.8 -10.3 2.2 -8.1 2.2 -5.5 C 2.2 -2.7 3.8 -0.1 6 -0.1 C 8.5 -0.1 9.4 -0.6 10.1 -1.8 M 2.2 -5.4 L 6.9 -5.4" fill="none" />
	</symbol>

	<symbol id="SmallJe" width="5" height="24" viewBox="4 -12 5 24">
		<path d="M 9 -5.7 C 8.5 -6.4 8 -7 6.5 -7 C 5 -7 4 -5.5 4 -3.5 C 4 -1.3 5 0 6.5 0 C 8 0 8.4 -0.3 9 -1 M 4 -3.5 L 7.6 -3.5" fill="none" />
	</symbol>

	<symbol id="CapZh" width="10" height="24" viewBox="1 -12 10 24">
		<path d="M 6 -10.8 L 6 0 M 1 -10.8 L 11 0 M 11 -10.8 L 1 0" fill="none" />
	</symbol>

	<symbol id="SmallZh" width="6" height="24" viewBox="3 -12 6 24">
		<path d="M 6 -7 L 6 0 M 3 -7 L 9 0 M 9 -7 L 3 0" fill="none" />
	</symbol>

	<symbol id="CapT" width="8" height="24" viewBox="2 -12 8 24">
		<path d="M 6 -10.8 L 6 0 M 2 -10.8 L 10 -10.8" fill="none" />
	</symbol>

	<symbol id="SmallT" width="6" height="24" viewBox="3 -12 6 24">
		<path d="M 6 -7 L 6 0 M 3 -7 L 9 -7" fill="none" />
	</symbol>
</svg>

