<svg xmlns="http://www.w3.org/2000/svg">
	<symbol id="cA" width="8" height="24" viewBox="2 -12 8 24">
		<path d="M 10 0 L 6 -10.8 L 2 0 M 4 -5.4 L 8 -5.4" fill="none" />
	</symbol>

	<symbol id="sA" width="7" height="24" viewBox="3.5 -12 7 24">
		<path d="M 8.6 0 L 6 -7 L 3.4 0 M 4.7 -3.5 L 7.3 -3.5" fill="none" />
	</symbol>

	<symbol id="cB" width="7" height="24" viewBox="3 -12 7 24">
		<path d="M 3 -10.7 L 3 -0.1 L 6 -0.1 C 10.5 -0.2 10.5 -5.4 6.1 -5.4 L 3 -5.4 M 3 -10.7 L 8.8 -10.7" fill="none" />
	</symbol>

	<symbol id="sB" width="5" height="24" viewBox="3.2 -12 5 24">
		<path d="M 6 -5 C 7.4 -5 8.2 -3.8 8.2 -2.6 C 8.1 -0.4 6.7 -0.1 6.1 -0 C 4.1 -0.1 3.5 -1.2 3.5 -2.4 C 3.5 -4.1 4.3 -4.9 6 -5 M 3.5 -2.4 C 2.7 -9.3 8.5 -4.9 8 -6.9" fill="none" />
	</symbol>

	<symbol id="cV" width="8" height="24" viewBox="3 -12 8 24">
		<path d="M 3 -10.6 L 3 0 L 7 0 C 11.9 -0.1 11.9 -5.3 7.1 -5.3 L 3 -5.3 M 3 -10.6 L 7 -10.6 C 11 -10.6 11 -5.7 7 -5.3" fill="none" />
	</symbol>

	<symbol id="sV" width="5" height="24" viewBox="4 -12 5 24">
		<path d="M 4 -6.8 L 4 0 L 6 0 C 9 -0 9 -3.4 6 -3.4 L 4 -3.4 M 4 -6.8 L 6 -6.8 C 8.3 -6.8 8.4 -3.7 6 -3.4" fill="none" />
	</symbol>

	<symbol id="cGh" width="5" height="24" viewBox="4 -12 5 24">
		<path d="M 4 -10.8 L 4 -0.1 M 4 -10.8 L 9 -10.8" fill="none" />
	</symbol>

	<symbol id="sGh" width="3" height="24" viewBox="4 -12 3 24">
		<path d="M 4 -6.9 L 4 -0 M 4 -6.9 L 7 -6.9" fill="none" />
	</symbol>

	<symbol id="cG" width="6" height="24" viewBox="4 -12 6 24">
		<path d="M 4 -10.5 L 4 0 M 4 -10.5 L 9.1 -10.5 C 9.4 -10.5 9.1 -10.8 9.6 -10.8" fill="none" />
	</symbol>

	<symbol id="sB" width="4" height="24" viewBox="4 -12 4 24">
		<path d="M 4 -6.9 L 4 -0.1 M 4 -6.9 L 7.2 -6.9 C 7.5 -6.9 7.3 -7.3 7.6 -7.2" fill="none" />
	</symbol>

	<symbol id="cD" width="8" height="24" viewBox="2 -12 8 24">
		<path d="M 2 2.7 L 2 0 L 10 0 L 10 2.7 M 3 0 L 4 -10.7 L 8 -10.7 L 9 0" fill="none" />
	</symbol>

	<symbol id="sD" width="6" height="24" viewBox="3 -12 6 24">
		<path d="M 0 0 M 3 1.5 L 3 0 L 9 0 L 9 1.5 M 4 0 L 5 -7 L 7 -7 L 8 0" fill="none" />
	</symbol>

	<symbol id="cE" width="8" height="24" viewBox="2 -12 8 24">
		<path d="M 2 -10.8 L 2 0 L 10 0 M 2 -5.4 L 10 -5.4 M 2 -10.8 L 10 -10.8" fill="none" />
	</symbol>

	<symbol id="sE" width="4" height="24" viewBox="4 -12 4 24">
		<path d="M 4 -7 L 4 -0 L 8 -0 M 4 -3.6 L 8 -3.6 M 4 -7 L 8 -7" fill="none" />
	</symbol>

	<symbol id="cJe" width="8" height="24" viewBox="2.2 -12 8 24">
		<path d="M 10 -9.2 C 9.1 -10.3 8 -10.9 6 -10.7 C 3.8 -10.3 2.2 -8.1 2.2 -5.5 C 2.2 -2.7 3.8 -0.1 6 -0.1 C 8.5 -0.1 9.4 -0.6 10.1 -1.8 M 2.2 -5.4 L 6.9 -5.4" fill="none" />
	</symbol>

	<symbol id="sJe" width="5" height="24" viewBox="4 -12 5 24">
		<path d="M 9 -5.7 C 8.5 -6.4 8 -7 6.5 -7 C 5 -7 4 -5.5 4 -3.5 C 4 -1.3 5 0 6.5 0 C 8 0 8.4 -0.3 9 -1 M 4 -3.5 L 7.6 -3.5" fill="none" />
	</symbol>

	<symbol id="cZh" width="10" height="24" viewBox="1 -12 10 24">
		<path d="M 6 -10.8 L 6 0 M 1 -10.8 L 11 0 M 11 -10.8 L 1 0" fill="none" />
	</symbol>

	<symbol id="sZh" width="6" height="24" viewBox="3 -12 6 24">
		<path d="M 6 -7 L 6 0 M 3 -7 L 9 0 M 9 -7 L 3 0" fill="none" />
	</symbol>

	<symbol id="cZ" width="8" height="24" viewBox="2 -12 8 24">
		<path d="M 3 -9.4 C 3.3 -9.8 3.7 -10.7 6 -10.8 C 7.4 -10.8 8.8 -10 8.9 -8.1 C 8.9 -7.3 8.8 -5.8 5.8 -5.8 C 8.7 -5.9 9.8 -4.8 9.9 -3.1 C 9.9 -2 9.2 -0.1 6 -0 C 3.6 0 2.7 -1.1 2 -2.3" fill="none" />
	</symbol>

	<symbol id="sZ" width="4.2" height="24" viewBox="4 -12 4.3 24">
		<path d="M 4.7 -5.7 C 4.8 -6.3 5.5 -7 6.2 -7 C 6.8 -7 7.9 -6.7 8 -5.5 C 8.1 -4.3 7.6 -3.7 6.3 -3.5 C 7.6 -3.6 8.2 -3 8.2 -1.9 C 8.2 -0.6 7.3 0 6 0 C 4.8 0 4.2 -0.8 4 -2" fill="none" />
	</symbol>

	<symbol id="cY" width="6" height="24" viewBox="3 -12 6 24">
		<path d="M 3 -10.8 L 3 0 M 9 -10.8 L 9 0 M 3 0 L 9 -8.1" fill="none" />
	</symbol>

	<symbol id="sY" width="4" height="24" viewBox="4 -12 4 24">
		<path d="M 4 -7 L 4 0 M 8 -7 L 8 0 M 4 -1 L 8 -5" fill="none" />
	</symbol>

	<symbol id="cI" width="2" height="24" viewBox="5 -12 2 24">
		<path d="M 6 -10.8 L 6 0 M 5 -10.8 L 7 -10.8 M 5 0 L 7 0" fill="none" />
	</symbol>

	<symbol id="sI" width="2" height="24" viewBox="5 -12 2 24">
		<path d="M 6 -7 L 6 0 M 6 -8" fill="none" />
	</symbol>

	<symbol id="cJi" width="2" height="24" viewBox="5 -12 2 24">
		<path d="M 6 -10.8 L 6 0 M 5 -10.8 L 7 -10.8 M 5 0 L 7 0 M 5.2 -11.5 M 6.8 -11.5" fill="none" />
	</symbol>

	<symbol id="sJi" width="2" height="24" viewBox="5 -12 2 24">
		<path d="M 6 -7 L 6 0 M 5 -8 M 7 -8" fill="none" />
	</symbol>

	<symbol id="cJ" width="6" height="24" viewBox="3 -12 6 24">
		<path d="M 3 -10.8 L 3 0 M 9 -10.8 L 9 0 M 3 0 L 9 -8.1 M 5 -10.5 C 6 -11.5 6 -9.5 7 -10.5" fill="none" />
	</symbol>

	<symbol id="sJ" width="4" height="24" viewBox="4 -12 4 24">
		<path d="M 4 -7 L 4 0 M 8 -7 L 8 0 M 4 -1 L 8 -5 M 5 -8 C 6 -9 6 -7 7 -8" fill="none" />
	</symbol>

	<symbol id="cK" width="6" height="24" viewBox="3 -12 6 24">
		<path d="M 3 -10.8 L 3 0 M 3 -5.9 L 8 -10.8 M 3 -5.9 L 9 0" fill="none" />
	</symbol>

	<symbol id="sK" width="4" height="24" viewBox="4 -12 4 24">
		<path d="M 4 -7 L 4 0 M 4 -3.7 L 7 -7 M 4 -3.7 L 8 0" fill="none" />
	</symbol>

	<symbol id="cL" width="8" height="24" viewBox="2 -12 8 24">
		<path d="M 6 -10.8 L 2 0 M 6 -10.8 L 10 0" fill="none" />
	</symbol>

	<symbol id="sL" width="4" height="24" viewBox="4 -12 4 24">
		<path d="M 6 -7 L 4 0 M 6 -7 L 8 0" fill="none" />
	</symbol>

	<symbol id="cM" width="8" height="24" viewBox="2 -12 8 24">
		<path d="M 2 0 L 2 -10.8 L 6 -0.8 L 10 -10.8 L 10 0" fill="none" />
	</symbol>

	<symbol id="sM" width="6" height="24" viewBox="3 -12 6 24">
		<path d="M 3 0 L 3 -7 L 6 0 L 9 -7 L 9 0" fill="none" />
	</symbol>

	<symbol id="cN" width="6" height="24" viewBox="3 -12 6 24">
		<path d="M 3 -10.8 L 3 0 M 9 -10.8 L 9 0 M 3 -5.4 L 9 -5.4" fill="none" />
	</symbol>

	<symbol id="sN" width="4" height="24" viewBox="4 -12 4 24">
		<path d="M 4 -7 L 4 0 M 8 -7 L 8 0 M 4 -3.5 L 8 -3.5" fill="none" />
	</symbol>

	<symbol id="cO" width="8" height="24" viewBox="2 -12 8 24">
		<path d="M 6 -10.8 C 9 -10.8 10 -8.1 10 -5.4 C 10 -2.7 9 0 6 0 C 3 0 2 -2.7 2 -5.4 C 2 -8.1 3 -10.8 6 -10.8" fill="none" />
	</symbol>

	<symbol id="sO" width="4" height="24" viewBox="4 -12 4 24">
		<path d="M 6 -7 C 7.5 -7 8 -5 8 -3.3 C 8 -1 7.3 0 6 0 C 4.7 0 4 -1 4 -3.3 C 4 -5 4.5 -7 6 -7" fill="none" />
	</symbol>

	<symbol id="cP" width="6" height="24" viewBox="3 -12 6 24">
		<path d="M 3 0 L 3 -10.9 L 9 -10.9 L 9 0" fill="none" />
	</symbol>

	<symbol id="sP" width="4" height="24" viewBox="4 -12 4 24">
		<path d="M 4 0 L 4 -7 L 8 -7 L 8 0" fill="none" />
	</symbol>

	<symbol id="cR" width="6" height="24" viewBox="3 -12 6 24">
		<path d="M 3 -10.8 L 3 0 M 3 -10.8 C 7 -10.8 9 -9.9 9 -7.2 C 9 -4.5 7 -3.6 3 -3.6" fill="none" />
	</symbol>

	<symbol id="sR" width="4" height="24" viewBox="3 -12 4 24">
		<path d="M 4 -7 L 4 0 M 4 -7 C 6 -7 8 -7 8 -4.5 C 8 -2 6 -2 4 -2" fill="none" />
	</symbol>

	<symbol id="cS" width="8" height="24" viewBox="2 -12 8 24">
		<path d="M 10 -8.1 C 9 -9.9 8 -10.8 6 -10.8 C 4 -10.8 2 -8.1 2 -5.4 C 2 -2.7 4 0 6 0 C 8 0 9 -0.9 10 -2.7" fill="none" />
	</symbol>

	<symbol id="sS" width="6" height="24" viewBox="3 -12 6 24">
		<path d="M 8.7 -5.1 C 8.5 -6 8 -7 6 -7 C 4 -7 3 -5 3 -3.6 C 3 -2 4 0 6 0 C 8 0 8.5 -1 8.7 -2.1" fill="none" />
	</symbol>

	<symbol id="cT" width="8" height="24" viewBox="2 -12 8 24">
		<path d="M 6 -10.8 L 6 0 M 2 -10.8 L 10 -10.8" fill="none" />
	</symbol>

	<symbol id="sT" width="6" height="24" viewBox="3 -12 6 24">
		<path d="M 6 -7 L 6 0 M 3 -7 L 9 -7" fill="none" />
	</symbol>

	<symbol id="cU" width="7" height="24" viewBox="3 -12 7 24">
		<path d="M 4 -10.8 L 6.8 -4.3 M 10 -10.8 L 5 -0.5 C 4.5 0.4 3.3 -0.1 3.1 -0.8" fill="none" />
	</symbol>

	<symbol id="sU" width="6" height="24" viewBox="3 -12 6 24">
		<path d="M 3.4 -7 L 6 0 M 8.6 -7 L 4.7 3.6" fill="none" />
	</symbol>

	<symbol id="cF" width="10" height="24" viewBox="1 -12 10 24">
		<path d="M 6 0 L 6 -10.8 C 9 -10.8 10 -9 10 -6.3 C 10 -3.6 9 -1.8 6 -1.8 C 3 -1.8 2 -3.6 2 -6.3 C 2 -9 3 -10.8 6 -10.8" fill="none" />
	</symbol>

	<symbol id="sF" width="6" height="24" viewBox="3 -12 6 24">
		<path d="M 6 1 L 6 -7 C 8 -7 9 -6 9 -3.5 C 9 -1 8 0 6 0 C 4 0 3 -1 3 -3.5 C 3 -6 4 -7 6 -7" fill="none" />
	</symbol>

	<symbol id="cH" width="8" height="24" viewBox="2 -12 8 24">
		<path d="M 10 -10.8 L 2 0 M 2 -10.8 L 10 0" fill="none" />
	</symbol>

	<symbol id="sH" width="6" height="24" viewBox="3 -12 6 24">
		<path d="M 9 -7 L 3 0 M 3 -7 L 9 0" fill="none" />
	</symbol>

	<symbol id="cC" width="7" height="24" viewBox="3 -12 7 24">
		<path d="M 3 -10.8 L 3 0 L 9 0 M 9 -10.8 L 9 0 L 10 0 L 10 2" fill="none" />
	</symbol>

	<symbol id="sC" width="5" height="24" viewBox="4 -12 5 24">
		<path d="M 4 -7 L 4 0 L 8 0 M 8 -7 L 8 0 L 9 0 L 9 2" fill="none" />
	</symbol>

	<symbol id="cCh" width="6" height="24" viewBox="3 -12 6 24">
		<path d="M 3 -10.8 C 3 -9.9 3 -8.1 3 -7.2 C 3 -3.6 5 -3.6 9 -3.6 M 9 -10.8 L 9 0" fill="none" />
	</symbol>

	<symbol id="sCh" width="4" height="24" viewBox="4 -12 4 24">
		<path d="M 4 -8 V -5 C 4 -2 6 -2 8 -2 M 8 -8 L 8 0" fill="none" />
	</symbol>

	<symbol id="cSh" width="10" height="24" viewBox="1 -12 10 24">
		<path d="M 1 -10.8 L 1 0 L 11 0 L 11 -10.8 M 6 0 L 6 -10.8" fill="none" />
	</symbol>

	<symbol id="sSh" width="6" height="24" viewBox="3 -12 6 24">
		<path d="M 3 -7 L 3 0 L 9 0 L 9 -7 M 6 0 L 6 -7" fill="none" />
	</symbol>

	<symbol id="cSch" width="11" height="24" viewBox="1 -12 11 24">
		<path d="M 1 -10.8 L 1 0 L 11 0 L 11 -10.8 M 6 0 L 6 -10.8 M 11 0 L 12 0 L 12 2" fill="none" />
	</symbol>

	<symbol id="sSch" width="7" height="24" viewBox="3 -12 7 24">
		<path d="M 3 -7 L 3 0 L 9 0 L 9 -7 M 6 0 L 6 -7 M 9 0 L 10 0 L 10 2" fill="none" />
	</symbol>

	<symbol id="cX" width="6" height="24" viewBox="3 -12 6 24">
		<path d="M 3 0 L 3 -10.8 M 3 0 C 7 0 9 -0.9 9 -3.6 C 9 -6.3 7 -7.2 3 -7.2" fill="none" />
	</symbol>

	<symbol id="sX" width="4" height="24" viewBox="3 -12 4 24">
		<path d="M 4 0 L 4 -7 M 4 0 C 6 0 8 0 8 -2.5 C 8 -5 6 -5 4 -5" fill="none" />
	</symbol>

	<symbol id="cJu" width="8" height="24" viewBox="2 -12 8 24">
		<path d="M 2 -10.8 L 2 0 M 2.01 -5.4306 L 4 -5.4 C 4 -2.7 4 0 7 0 C 10 0 10 -2.7 10 -5.4 C 10 -8.1 10 -10.8 7 -10.8 C 4 -10.8 4 -8.1 4 -5.4" fill="none" />
	</symbol>

	<symbol id="sJu" width="6" height="24" viewBox="3 -12 6 24">
		<path d="M 3 -7 L 3 0 M 3 -3.5 L 5 -3.5 C 5 -1 5 0 7 0 C 9 0 9 -1 9 -3.5 C 9 -6 9 -7 7 -7 C 5 -7 5 -6 5 -3.5" fill="none" />
	</symbol>

	<symbol id="cJa" width="6" height="24" viewBox="3 -12 6 24">
		<path d="M 9 -10.8 L 9 0 M 9 -10.8 C 6 -10.8 3 -10.8 3 -8.1 C 3 -5.4 6 -5.4 9 -5.4 L 3 0" fill="none" />
	</symbol>

	<symbol id="sJa" width="4" height="24" viewBox="4 -12 4 24">
		<path d="M 8 -7 L 8 0 M 8 -7 C 6 -7 4 -7 4 -5 C 4 -3 6 -3 8 -3 L 4 0" fill="none" />
	</symbol>
</svg>

