<svg xmlns="http://www.w3.org/2000/svg">
	<symbol id="plus" viewBox="11.5 -12 6 24">
		<path d="M 6 -9 L 6 -3 M 3 -6 L 9 -6" />
	</symbol>

	<symbol id="minus" viewBox="11.5 -12 6 24">
		<path d="M 3 -6 L 9 -6" />
	</symbol>

	<symbol id="equal" viewBox="11.5 -12 6 24">
		<path d="M 3 -8 L 9 -8 M 3 -4 L 9 -4" />
	</symbol>

	<symbol id="dot" viewBox="8 -12 4 24">
		<path d="M 0.1 -0.15 C 0.1 0 -0.1 0 -0.1 -0.15 C -0.1 -0.3 0.1 -0.3 0.1 -0.15" fill="none" />
	</symbol>

	<symbol id="comma" viewBox="8 -12 4 24">
		<path d="M 0.1 -0.15 C 0.1 0 -0.1 0 -0.1 -0.15 C -0.1 -0.3 0.1 -0.3 0.1 -0.15 C 0.23 0.56 -0 1.35 -0.64 1.96" fill="none" />
	</symbol>

	<symbol id="colon" viewBox="8 -12 4 24">
		<path d="M 1.1 -5.15 c 0 0.15 -0.2 0.15 -0.2 0 c 0 -0.15 0.2 -0.15 0.2 0 M 0.1 -0.15 C 0.1 0 -0.1 0 -0.1 -0.15 C -0.1 -0.3 0.1 -0.3 0.1 -0.15" fill="none" />
	</symbol>

	<symbol id="semicolon" viewBox="8 -12 4 24">
		<path d="M 1.1 -5.15 c 0 0.15 -0.2 0.15 -0.2 0 c 0 -0.15 0.2 -0.15 0.2 0 M 0.1 -0.15 C 0.1 0 -0.1 0 -0.1 -0.15 C -0.1 -0.3 0.1 -0.3 0.1 -0.15 C 0.23 0.56 0 1.35 -0.64 1.96" fill="none" />
	</symbol>

	<symbol id="exclamation" viewBox="8 -12 6 24">
		<path d="M 0.1 -0.15 C 0.1 0 -0.1 0 -0.1 -0.15 C -0.1 -0.3 0.1 -0.3 0.1 -0.15 M 3.7 -11 L 0.6 -2" fill="none" />
	</symbol>

	<symbol id="question" viewBox="7 -12 8 24">
		<path d="M 0.1 -0.15 C 0.1 0 -0.1 0 -0.1 -0.15 C -0.1 -0.3 0.1 -0.3 0.1 -0.15 M -0.6 -9 C -0.28 -10.41 1.07 -10.98 2.35 -10.98 C 3.79 -10.99 4.95 -9.99 4.87 -8.5 C 4.88 -6.51 3.38 -6.09 2.23 -5.09 C 0.87 -3.99 0.32 -2.55 0.17 -1.86" fill="none" />
	</symbol>
</svg>
